<svg xmlns="http://www.w3.org/2000/svg" xmlns:xlink="http://www.w3.org/1999/xlink" aria-hidden="true" role="img" class="iconify iconify--logos" width="31.88" height="32" preserveAspectRatio="xMidYMid meet" viewBox="0 0 256 257"><defs><linearGradient id="IconifyId1813088fe1fbc01" x1="-46.062%" x2="58.246%" y1="12.518%" y2="113.12%"><stop offset="0%" stop-color="#41D1FF"></stop><stop offset="100%" stop-color="#BD34FE"></stop></linearGradient><linearGradient id="IconifyId1813088fe1fbc02" x1="41.134%" x2="50%" y1="0%" y2="100%"><stop offset="0%" stop-color="#FFEA83"></stop><stop offset="8.333%" stop-color="#FFDD35"></stop><stop offset="100%" stop-color="#FFA800"></stop></linearGradient></defs><path fill="url(#IconifyId1813088fe1fbc01)" d="M255.153 37.938L134.897 252.976c-2.483 4.44-8.862 4.466-11.382.048L.879 37.958c-2.762-4.802 1.95-10.398 7.184-9.05L124.394 60.56c1.077.276 2.207.276 3.285 0L247.92 28.908c5.234-1.348 9.946 4.247 7.233 9.03z"></path><path fill="url(#IconifyId1813088fe1fbc02)" d="M135.077 5.525L231.608 28.09l-117.702 196.15a6.4 6.4 0 0 1-10.966-.024L11.531 28.077L120.923 5.527a6.4 6.4 0 0 1 14.154 0z"></path></svg>
